<?xml version="1.0" encoding="UTF-8" standalone="no"?>
<!DOCTYPE svg PUBLIC "-//W3C//DTD SVG 1.1//EN"
 "http://www.w3.org/Graphics/SVG/1.1/DTD/svg11.dtd">
<!-- Generated by graphviz version 12.0.0 (20240803.0821)
 -->
<!-- Title: Immunopipe Pages: 1 -->
<svg width="552pt" height="591pt"
 viewBox="0.00 0.00 551.88 590.50" xmlns="http://www.w3.org/2000/svg" xmlns:xlink="http://www.w3.org/1999/xlink">
<g id="graph0" class="graph" transform="scale(1 1) rotate(0) translate(4 586.5)">
<title>Immunopipe</title>
<polygon fill="white" stroke="none" points="-4,4 -4,-586.5 547.88,-586.5 547.88,4 -4,4"/>
<text text-anchor="middle" x="271.94" y="-565.2" font-family="Helvetica,sans-Serif" font-size="14.00">Immunopipe</text>
<text text-anchor="middle" x="271.94" y="-547.95" font-family="Helvetica,sans-Serif" font-size="14.00"> </text>
<!-- IntegratingTCR -->
<g id="node1" class="node">
<title>IntegratingTCR</title>
<g id="a_node1"><a xlink:title="Attach TCR clone information as meta columns to Seurat object">
<path fill="none" stroke="black" d="M308.62,-108C308.62,-108 227.38,-108 227.38,-108 221.38,-108 215.38,-102 215.38,-96 215.38,-96 215.38,-84 215.38,-84 215.38,-78 221.38,-72 227.38,-72 227.38,-72 308.62,-72 308.62,-72 314.62,-72 320.62,-78 320.62,-84 320.62,-84 320.62,-96 320.62,-96 320.62,-102 314.62,-108 308.62,-108"/>
<text text-anchor="middle" x="268" y="-85.72" font-family="Helvetica,sans-Serif" font-size="12.00">IntegratingTCR</text>
</a>
</g>
</g>
<!-- CloneResidency -->
<g id="node2" class="node">
<title>CloneResidency</title>
<polygon fill="none" stroke="black" points="543.88,-36 434.12,-36 434.12,0 543.88,0 543.88,-36"/>
<text text-anchor="middle" x="489" y="-13.72" font-family="Helvetica,sans-Serif" font-size="12.00">CloneResidency</text>
</g>
<!-- IntegratingTCR&#45;&gt;CloneResidency -->
<g id="edge7" class="edge">
<title>IntegratingTCR&#45;&gt;CloneResidency</title>
<path fill="none" stroke="black" d="M320.94,-72.23C352.23,-62.32 392.08,-49.7 425.12,-39.23"/>
<polygon fill="black" stroke="black" points="425.58,-42.03 432.36,-36.94 423.89,-36.69 425.58,-42.03"/>
</g>
<!-- Immunarch -->
<g id="node3" class="node">
<title>Immunarch</title>
<g id="a_node3"><a xlink:title="Exploration of Single&#45;cell and Bulk T&#45;cell/Antibody Immune Repertoires">
<polygon fill="none" stroke="black" points="140.5,-36 55.5,-36 55.5,0 140.5,0 140.5,-36"/>
<text text-anchor="middle" x="98" y="-13.72" font-family="Helvetica,sans-Serif" font-size="12.00">Immunarch</text>
</a>
</g>
</g>
<!-- IntegratingTCR&#45;&gt;Immunarch -->
<g id="edge8" class="edge">
<title>IntegratingTCR&#45;&gt;Immunarch</title>
<path fill="none" stroke="black" d="M225.54,-71.52C202.33,-61.96 173.42,-50.05 148.99,-40"/>
<polygon fill="black" stroke="black" points="150.08,-37.41 141.61,-36.96 147.94,-42.59 150.08,-37.41"/>
</g>
<!-- CellsDistribution -->
<g id="node11" class="node">
<title>CellsDistribution</title>
<polygon fill="none" stroke="black" points="416,-36 304,-36 304,0 416,0 416,-36"/>
<text text-anchor="middle" x="360" y="-13.72" font-family="Helvetica,sans-Serif" font-size="12.00">CellsDistribution</text>
</g>
<!-- IntegratingTCR&#45;&gt;CellsDistribution -->
<g id="edge9" class="edge">
<title>IntegratingTCR&#45;&gt;CellsDistribution</title>
<path fill="none" stroke="black" d="M290.74,-71.7C302.57,-62.69 317.19,-51.57 329.94,-41.87"/>
<polygon fill="black" stroke="black" points="331.33,-44.34 336,-37.26 327.93,-39.88 331.33,-44.34"/>
</g>
<!-- SeuratClusterStats -->
<g id="node13" class="node">
<title>SeuratClusterStats</title>
<polygon fill="none" stroke="black" points="285.88,-36 158.12,-36 158.12,0 285.88,0 285.88,-36"/>
<text text-anchor="middle" x="222" y="-13.72" font-family="Helvetica,sans-Serif" font-size="12.00">SeuratClusterStats</text>
</g>
<!-- IntegratingTCR&#45;&gt;SeuratClusterStats -->
<g id="edge5" class="edge">
<title>IntegratingTCR&#45;&gt;SeuratClusterStats</title>
<path fill="none" stroke="black" d="M256.63,-71.7C251.11,-63.3 244.39,-53.07 238.34,-43.86"/>
<polygon fill="black" stroke="black" points="240.8,-42.52 234.07,-37.37 236.12,-45.59 240.8,-42.52"/>
</g>
<!-- ModuleScoreCalculator -->
<g id="node4" class="node">
<title>ModuleScoreCalculator</title>
<g id="a_node4"><a xlink:title="Calculate the module scores for each cell">
<path fill="none" stroke="black" d="M147,-252C147,-252 17,-252 17,-252 11,-252 5,-246 5,-240 5,-240 5,-228 5,-228 5,-222 11,-216 17,-216 17,-216 147,-216 147,-216 153,-216 159,-222 159,-228 159,-228 159,-240 159,-240 159,-246 153,-252 147,-252"/>
<text text-anchor="middle" x="82" y="-229.72" font-family="Helvetica,sans-Serif" font-size="12.00">ModuleScoreCalculator</text>
</a>
</g>
</g>
<!-- SeuratClustering -->
<g id="node5" class="node">
<title>SeuratClustering</title>
<g id="a_node5"><a xlink:title="Cluster all T cells or selected T cells selected by `TCellSelection`.">
<path fill="none" stroke="black" d="M137.88,-180C137.88,-180 46.12,-180 46.12,-180 40.12,-180 34.12,-174 34.12,-168 34.12,-168 34.12,-156 34.12,-156 34.12,-150 40.12,-144 46.12,-144 46.12,-144 137.88,-144 137.88,-144 143.88,-144 149.88,-150 149.88,-156 149.88,-156 149.88,-168 149.88,-168 149.88,-174 143.88,-180 137.88,-180"/>
<text text-anchor="middle" x="92" y="-157.72" font-family="Helvetica,sans-Serif" font-size="12.00">SeuratClustering</text>
</a>
</g>
</g>
<!-- ModuleScoreCalculator&#45;&gt;SeuratClustering -->
<g id="edge15" class="edge">
<title>ModuleScoreCalculator&#45;&gt;SeuratClustering</title>
<path fill="none" stroke="black" d="M84.47,-215.7C85.61,-207.73 86.99,-198.1 88.25,-189.26"/>
<polygon fill="black" stroke="black" points="90.98,-189.92 89.34,-181.6 85.44,-189.13 90.98,-189.92"/>
</g>
<!-- SeuratClustering&#45;&gt;IntegratingTCR -->
<g id="edge4" class="edge">
<title>SeuratClustering&#45;&gt;IntegratingTCR</title>
<path fill="none" stroke="black" d="M135.96,-143.52C160.09,-133.92 190.18,-121.95 215.54,-111.86"/>
<polygon fill="black" stroke="black" points="216.49,-114.5 222.89,-108.94 214.42,-109.3 216.49,-114.5"/>
</g>
<!-- ClusterMarkers -->
<g id="node8" class="node">
<title>ClusterMarkers</title>
<g id="a_node8"><a xlink:title="Markers for clusters of all or selected T cells.">
<polygon fill="none" stroke="black" points="145.38,-108 38.62,-108 38.62,-72 145.38,-72 145.38,-108"/>
<text text-anchor="middle" x="92" y="-85.72" font-family="Helvetica,sans-Serif" font-size="12.00">ClusterMarkers</text>
</a>
</g>
</g>
<!-- SeuratClustering&#45;&gt;ClusterMarkers -->
<g id="edge2" class="edge">
<title>SeuratClustering&#45;&gt;ClusterMarkers</title>
<path fill="none" stroke="black" d="M92,-143.7C92,-135.81 92,-126.3 92,-117.55"/>
<polygon fill="black" stroke="black" points="94.8,-117.62 92,-109.62 89.2,-117.62 94.8,-117.62"/>
</g>
<!-- TCellSelection -->
<g id="node6" class="node">
<title>TCellSelection</title>
<path fill="none" stroke="black" d="M123.62,-324C123.62,-324 48.38,-324 48.38,-324 42.38,-324 36.38,-318 36.38,-312 36.38,-312 36.38,-300 36.38,-300 36.38,-294 42.38,-288 48.38,-288 48.38,-288 123.62,-288 123.62,-288 129.62,-288 135.62,-294 135.62,-300 135.62,-300 135.62,-312 135.62,-312 135.62,-318 129.62,-324 123.62,-324"/>
<text text-anchor="middle" x="86" y="-301.73" font-family="Helvetica,sans-Serif" font-size="12.00">TCellSelection</text>
</g>
<!-- TCellSelection&#45;&gt;ModuleScoreCalculator -->
<g id="edge13" class="edge">
<title>TCellSelection&#45;&gt;ModuleScoreCalculator</title>
<path fill="none" stroke="black" d="M85.01,-287.7C84.56,-279.81 84.02,-270.3 83.52,-261.55"/>
<polygon fill="black" stroke="black" points="86.32,-261.44 83.06,-253.62 80.72,-261.76 86.32,-261.44"/>
</g>
<!-- SampleInfo -->
<g id="node7" class="node">
<title>SampleInfo</title>
<g id="a_node7"><a xlink:title="List sample information and perform statistics">
<polygon fill="none" stroke="black" points="171,-540 95.22,-522 171,-504 246.78,-522 171,-540"/>
<text text-anchor="middle" x="171" y="-517.73" font-family="Helvetica,sans-Serif" font-size="12.00">SampleInfo</text>
</a>
</g>
</g>
<!-- SeuratPreparing -->
<g id="node10" class="node">
<title>SeuratPreparing</title>
<g id="a_node10"><a xlink:title="Load, prepare and apply QC to data, using `Seurat`">
<path fill="none" stroke="black" d="M173.38,-468C173.38,-468 84.62,-468 84.62,-468 78.62,-468 72.62,-462 72.62,-456 72.62,-456 72.62,-444 72.62,-444 72.62,-438 78.62,-432 84.62,-432 84.62,-432 173.38,-432 173.38,-432 179.38,-432 185.38,-438 185.38,-444 185.38,-444 185.38,-456 185.38,-456 185.38,-462 179.38,-468 173.38,-468"/>
<text text-anchor="middle" x="129" y="-445.73" font-family="Helvetica,sans-Serif" font-size="12.00">SeuratPreparing</text>
</a>
</g>
</g>
<!-- SampleInfo&#45;&gt;SeuratPreparing -->
<g id="edge10" class="edge">
<title>SampleInfo&#45;&gt;SeuratPreparing</title>
<path fill="none" stroke="black" d="M161.89,-505.81C156.68,-497.14 150.03,-486.05 144.07,-476.12"/>
<polygon fill="black" stroke="black" points="146.57,-474.84 140.05,-469.42 141.77,-477.73 146.57,-474.84"/>
</g>
<!-- ImmunarchLoading -->
<g id="node12" class="node">
<title>ImmunarchLoading</title>
<g id="a_node12"><a xlink:title="Immuarch &#45; Loading data">
<path fill="none" stroke="black" d="M310.12,-396C310.12,-396 201.88,-396 201.88,-396 195.88,-396 189.88,-390 189.88,-384 189.88,-384 189.88,-372 189.88,-372 189.88,-366 195.88,-360 201.88,-360 201.88,-360 310.12,-360 310.12,-360 316.12,-360 322.12,-366 322.12,-372 322.12,-372 322.12,-384 322.12,-384 322.12,-390 316.12,-396 310.12,-396"/>
<text text-anchor="middle" x="256" y="-373.73" font-family="Helvetica,sans-Serif" font-size="12.00">ImmunarchLoading</text>
</a>
</g>
</g>
<!-- SampleInfo&#45;&gt;ImmunarchLoading -->
<g id="edge14" class="edge">
<title>SampleInfo&#45;&gt;ImmunarchLoading</title>
<path fill="none" stroke="black" d="M180.1,-505.8C194.66,-481.48 223.36,-433.53 240.99,-404.07"/>
<polygon fill="black" stroke="black" points="243.17,-405.89 244.87,-397.59 238.36,-403.01 243.17,-405.89"/>
</g>
<!-- SeuratClusteringOfAllCells -->
<g id="node9" class="node">
<title>SeuratClusteringOfAllCells</title>
<g id="a_node9"><a xlink:title="Cluster all cells, including T cells and non&#45;T cells using Seurat">
<path fill="none" stroke="black" d="M160,-396C160,-396 12,-396 12,-396 6,-396 0,-390 0,-384 0,-384 0,-372 0,-372 0,-366 6,-360 12,-360 12,-360 160,-360 160,-360 166,-360 172,-366 172,-372 172,-372 172,-384 172,-384 172,-390 166,-396 160,-396"/>
<text text-anchor="middle" x="86" y="-373.73" font-family="Helvetica,sans-Serif" font-size="12.00">SeuratClusteringOfAllCells</text>
</a>
</g>
</g>
<!-- SeuratClusteringOfAllCells&#45;&gt;TCellSelection -->
<g id="edge6" class="edge">
<title>SeuratClusteringOfAllCells&#45;&gt;TCellSelection</title>
<path fill="none" stroke="black" d="M86,-359.7C86,-351.81 86,-342.3 86,-333.55"/>
<polygon fill="black" stroke="black" points="88.8,-333.62 86,-325.62 83.2,-333.62 88.8,-333.62"/>
</g>
<!-- SeuratPreparing&#45;&gt;SeuratClusteringOfAllCells -->
<g id="edge1" class="edge">
<title>SeuratPreparing&#45;&gt;SeuratClusteringOfAllCells</title>
<path fill="none" stroke="black" d="M118.37,-431.7C113.27,-423.39 107.06,-413.28 101.44,-404.14"/>
<polygon fill="black" stroke="black" points="103.87,-402.75 97.3,-397.39 99.1,-405.68 103.87,-402.75"/>
</g>
<!-- ImmunarchLoading&#45;&gt;IntegratingTCR -->
<g id="edge11" class="edge">
<title>ImmunarchLoading&#45;&gt;IntegratingTCR</title>
<path fill="none" stroke="black" d="M256.73,-359.54C258.76,-311.16 264.47,-175.15 266.89,-117.43"/>
<polygon fill="black" stroke="black" points="269.68,-117.85 267.21,-109.74 264.08,-117.62 269.68,-117.85"/>
</g>
<!-- ImmunarchLoading&#45;&gt;CloneResidency -->
<g id="edge16" class="edge">
<title>ImmunarchLoading&#45;&gt;CloneResidency</title>
<path fill="none" stroke="black" d="M314.6,-359.59C369.12,-339.34 442,-300.1 442,-235 442,-235 442,-235 442,-161 442,-118.59 461.13,-72.49 474.98,-44.68"/>
<polygon fill="black" stroke="black" points="477.42,-46.06 478.57,-37.67 472.43,-43.51 477.42,-46.06"/>
</g>
<!-- ImmunarchLoading&#45;&gt;Immunarch -->
<g id="edge3" class="edge">
<title>ImmunarchLoading&#45;&gt;Immunarch</title>
<path fill="none" stroke="black" d="M241.03,-359.5C220.73,-333.94 187,-284.06 187,-235 187,-235 187,-235 187,-161 187,-118.81 177.26,-107.2 154,-72 146.88,-61.23 137.18,-51.06 127.86,-42.56"/>
<polygon fill="black" stroke="black" points="129.84,-40.57 121.98,-37.4 126.15,-44.78 129.84,-40.57"/>
</g>
<!-- ImmunarchLoading&#45;&gt;TCellSelection -->
<g id="edge12" class="edge">
<title>ImmunarchLoading&#45;&gt;TCellSelection</title>
<path fill="none" stroke="black" d="M213.54,-359.52C190.33,-349.96 161.42,-338.05 136.99,-328"/>
<polygon fill="black" stroke="black" points="138.08,-325.41 129.61,-324.96 135.94,-330.59 138.08,-325.41"/>
</g>
</g>
</svg>
