<?xml version="1.0" encoding="UTF-8" standalone="no"?>
<!DOCTYPE svg PUBLIC "-//W3C//DTD SVG 1.1//EN"
 "http://www.w3.org/Graphics/SVG/1.1/DTD/svg11.dtd">
<!-- Generated by graphviz version 3.0.0 (20220315.2325)
 -->
<!-- Title: Immunopipe Pages: 1 -->
<svg width="478pt" height="586pt"
 viewBox="0.00 0.00 477.50 586.00" xmlns="http://www.w3.org/2000/svg" xmlns:xlink="http://www.w3.org/1999/xlink">
<g id="graph0" class="graph" transform="scale(1 1) rotate(0) translate(4 582)">
<title>Immunopipe</title>
<polygon fill="white" stroke="transparent" points="-4,4 -4,-582 473.5,-582 473.5,4 -4,4"/>
<text text-anchor="middle" x="234.75" y="-562.8" font-family="Helvetica,sans-Serif" font-size="14.00">Immunopipe</text>
<text text-anchor="middle" x="234.75" y="-547.8" font-family="Helvetica,sans-Serif" font-size="14.00"> </text>
<!-- SeuratClusteringOfAllCells -->
<g id="node1" class="node">
<title>SeuratClusteringOfAllCells</title>
<g id="a_node1"><a xlink:title="Cluster all cells, including T cells and non&#45;T cells using Seurat">
<path fill="none" stroke="black" d="M457.5,-396C457.5,-396 320.5,-396 320.5,-396 314.5,-396 308.5,-390 308.5,-384 308.5,-384 308.5,-372 308.5,-372 308.5,-366 314.5,-360 320.5,-360 320.5,-360 457.5,-360 457.5,-360 463.5,-360 469.5,-366 469.5,-372 469.5,-372 469.5,-384 469.5,-384 469.5,-390 463.5,-396 457.5,-396"/>
<text text-anchor="middle" x="389" y="-374.9" font-family="Helvetica,sans-Serif" font-size="12.00">SeuratClusteringOfAllCells</text>
</a>
</g>
</g>
<!-- TCellSelection -->
<g id="node5" class="node">
<title>TCellSelection</title>
<path fill="none" stroke="black" d="M425,-324C425,-324 353,-324 353,-324 347,-324 341,-318 341,-312 341,-312 341,-300 341,-300 341,-294 347,-288 353,-288 353,-288 425,-288 425,-288 431,-288 437,-294 437,-300 437,-300 437,-312 437,-312 437,-318 431,-324 425,-324"/>
<text text-anchor="middle" x="389" y="-302.9" font-family="Helvetica,sans-Serif" font-size="12.00">TCellSelection</text>
</g>
<!-- SeuratClusteringOfAllCells&#45;&gt;TCellSelection -->
<g id="edge9" class="edge">
<title>SeuratClusteringOfAllCells&#45;&gt;TCellSelection</title>
<path fill="none" stroke="black" d="M389,-359.7C389,-351.39 389,-341.28 389,-332.14"/>
<polygon fill="black" stroke="black" points="391.8,-332.1 389,-324.1 386.2,-332.1 391.8,-332.1"/>
</g>
<!-- ImmunarchLoading -->
<g id="node2" class="node">
<title>ImmunarchLoading</title>
<g id="a_node2"><a xlink:title="Immuarch &#45; Loading data">
<path fill="none" stroke="black" d="M278.5,-396C278.5,-396 183.5,-396 183.5,-396 177.5,-396 171.5,-390 171.5,-384 171.5,-384 171.5,-372 171.5,-372 171.5,-366 177.5,-360 183.5,-360 183.5,-360 278.5,-360 278.5,-360 284.5,-360 290.5,-366 290.5,-372 290.5,-372 290.5,-384 290.5,-384 290.5,-390 284.5,-396 278.5,-396"/>
<text text-anchor="middle" x="231" y="-374.9" font-family="Helvetica,sans-Serif" font-size="12.00">ImmunarchLoading</text>
</a>
</g>
</g>
<!-- IntegratingTCR -->
<g id="node3" class="node">
<title>IntegratingTCR</title>
<g id="a_node3"><a xlink:title="Attach TCR clone information as meta columns to Seurat object">
<path fill="none" stroke="black" d="M254,-108C254,-108 180,-108 180,-108 174,-108 168,-102 168,-96 168,-96 168,-84 168,-84 168,-78 174,-72 180,-72 180,-72 254,-72 254,-72 260,-72 266,-78 266,-84 266,-84 266,-96 266,-96 266,-102 260,-108 254,-108"/>
<text text-anchor="middle" x="217" y="-86.9" font-family="Helvetica,sans-Serif" font-size="12.00">IntegratingTCR</text>
</a>
</g>
</g>
<!-- ImmunarchLoading&#45;&gt;IntegratingTCR -->
<g id="edge16" class="edge">
<title>ImmunarchLoading&#45;&gt;IntegratingTCR</title>
<path fill="none" stroke="black" d="M230.17,-359.97C227.8,-311.7 221.05,-173.8 218.25,-116.47"/>
<polygon fill="black" stroke="black" points="221.04,-116.16 217.85,-108.31 215.44,-116.43 221.04,-116.16"/>
</g>
<!-- ImmunarchLoading&#45;&gt;TCellSelection -->
<g id="edge11" class="edge">
<title>ImmunarchLoading&#45;&gt;TCellSelection</title>
<path fill="none" stroke="black" d="M269.65,-359.88C291.83,-350.05 319.8,-337.66 343.09,-327.34"/>
<polygon fill="black" stroke="black" points="344.29,-329.87 350.47,-324.07 342.03,-324.75 344.29,-329.87"/>
</g>
<!-- Immunarch -->
<g id="node8" class="node">
<title>Immunarch</title>
<g id="a_node8"><a xlink:title="Exploration of Single&#45;cell and Bulk T&#45;cell/Antibody Immune Repertoires">
<polygon fill="none" stroke="black" points="76,-36 0,-36 0,0 76,0 76,-36"/>
<text text-anchor="middle" x="38" y="-14.9" font-family="Helvetica,sans-Serif" font-size="12.00">Immunarch</text>
</a>
</g>
</g>
<!-- ImmunarchLoading&#45;&gt;Immunarch -->
<g id="edge14" class="edge">
<title>ImmunarchLoading&#45;&gt;Immunarch</title>
<path fill="none" stroke="black" d="M205.21,-359.94C172.7,-336.16 121,-289.73 121,-235 121,-235 121,-235 121,-161 121,-113.94 86.61,-68.63 62.1,-42.31"/>
<polygon fill="black" stroke="black" points="63.97,-40.21 56.42,-36.36 59.92,-44.08 63.97,-40.21"/>
</g>
<!-- CloneResidency -->
<g id="node11" class="node">
<title>CloneResidency</title>
<polygon fill="none" stroke="black" points="459,-36 353,-36 353,0 459,0 459,-36"/>
<text text-anchor="middle" x="406" y="-14.9" font-family="Helvetica,sans-Serif" font-size="12.00">CloneResidency</text>
</g>
<!-- ImmunarchLoading&#45;&gt;CloneResidency -->
<g id="edge1" class="edge">
<title>ImmunarchLoading&#45;&gt;CloneResidency</title>
<path fill="none" stroke="black" d="M244.36,-359.72C262.85,-334.03 294,-283.55 294,-235 294,-235 294,-235 294,-161 294,-118.81 300.89,-105.13 327,-72 336.92,-59.41 350.68,-48.74 363.94,-40.36"/>
<polygon fill="black" stroke="black" points="365.42,-42.73 370.8,-36.18 362.51,-37.95 365.42,-42.73"/>
</g>
<!-- IntegratingTCR&#45;&gt;Immunarch -->
<g id="edge4" class="edge">
<title>IntegratingTCR&#45;&gt;Immunarch</title>
<path fill="none" stroke="black" d="M173.21,-71.88C146.06,-61.26 111.23,-47.64 83.73,-36.88"/>
<polygon fill="black" stroke="black" points="84.65,-34.24 76.18,-33.93 82.61,-39.45 84.65,-34.24"/>
</g>
<!-- SeuratClusterStats -->
<g id="node10" class="node">
<title>SeuratClusterStats</title>
<polygon fill="none" stroke="black" points="211.5,-36 94.5,-36 94.5,0 211.5,0 211.5,-36"/>
<text text-anchor="middle" x="153" y="-14.9" font-family="Helvetica,sans-Serif" font-size="12.00">SeuratClusterStats</text>
</g>
<!-- IntegratingTCR&#45;&gt;SeuratClusterStats -->
<g id="edge6" class="edge">
<title>IntegratingTCR&#45;&gt;SeuratClusterStats</title>
<path fill="none" stroke="black" d="M201.18,-71.7C193.04,-62.8 183.01,-51.82 174.21,-42.2"/>
<polygon fill="black" stroke="black" points="176.1,-40.12 168.64,-36.1 171.97,-43.9 176.1,-40.12"/>
</g>
<!-- IntegratingTCR&#45;&gt;CloneResidency -->
<g id="edge10" class="edge">
<title>IntegratingTCR&#45;&gt;CloneResidency</title>
<path fill="none" stroke="black" d="M263.23,-71.88C290.11,-61.92 324.09,-49.34 352.17,-38.94"/>
<polygon fill="black" stroke="black" points="353.39,-41.47 359.92,-36.07 351.44,-36.22 353.39,-41.47"/>
</g>
<!-- CellsDistribution -->
<g id="node13" class="node">
<title>CellsDistribution</title>
<polygon fill="none" stroke="black" points="334.5,-36 229.5,-36 229.5,0 334.5,0 334.5,-36"/>
<text text-anchor="middle" x="282" y="-14.9" font-family="Helvetica,sans-Serif" font-size="12.00">CellsDistribution</text>
</g>
<!-- IntegratingTCR&#45;&gt;CellsDistribution -->
<g id="edge13" class="edge">
<title>IntegratingTCR&#45;&gt;CellsDistribution</title>
<path fill="none" stroke="black" d="M233.07,-71.7C241.33,-62.8 251.52,-51.82 260.46,-42.2"/>
<polygon fill="black" stroke="black" points="262.73,-43.87 266.12,-36.1 258.62,-40.06 262.73,-43.87"/>
</g>
<!-- ModuleScoreCalculator -->
<g id="node4" class="node">
<title>ModuleScoreCalculator</title>
<g id="a_node4"><a xlink:title="Calculate the module scores for each cell">
<path fill="none" stroke="black" d="M453.5,-252C453.5,-252 334.5,-252 334.5,-252 328.5,-252 322.5,-246 322.5,-240 322.5,-240 322.5,-228 322.5,-228 322.5,-222 328.5,-216 334.5,-216 334.5,-216 453.5,-216 453.5,-216 459.5,-216 465.5,-222 465.5,-228 465.5,-228 465.5,-240 465.5,-240 465.5,-246 459.5,-252 453.5,-252"/>
<text text-anchor="middle" x="394" y="-230.9" font-family="Helvetica,sans-Serif" font-size="12.00">ModuleScoreCalculator</text>
</a>
</g>
</g>
<!-- SeuratClustering -->
<g id="node6" class="node">
<title>SeuratClustering</title>
<g id="a_node6"><a xlink:title="Cluster all T cells or selected T cells selected by `TCellSelection`.">
<path fill="none" stroke="black" d="M426.5,-180C426.5,-180 343.5,-180 343.5,-180 337.5,-180 331.5,-174 331.5,-168 331.5,-168 331.5,-156 331.5,-156 331.5,-150 337.5,-144 343.5,-144 343.5,-144 426.5,-144 426.5,-144 432.5,-144 438.5,-150 438.5,-156 438.5,-156 438.5,-168 438.5,-168 438.5,-174 432.5,-180 426.5,-180"/>
<text text-anchor="middle" x="385" y="-158.9" font-family="Helvetica,sans-Serif" font-size="12.00">SeuratClustering</text>
</a>
</g>
</g>
<!-- ModuleScoreCalculator&#45;&gt;SeuratClustering -->
<g id="edge8" class="edge">
<title>ModuleScoreCalculator&#45;&gt;SeuratClustering</title>
<path fill="none" stroke="black" d="M391.78,-215.7C390.71,-207.39 389.41,-197.28 388.23,-188.14"/>
<polygon fill="black" stroke="black" points="391,-187.68 387.2,-180.1 385.44,-188.4 391,-187.68"/>
</g>
<!-- TCellSelection&#45;&gt;ModuleScoreCalculator -->
<g id="edge7" class="edge">
<title>TCellSelection&#45;&gt;ModuleScoreCalculator</title>
<path fill="none" stroke="black" d="M390.24,-287.7C390.83,-279.39 391.55,-269.28 392.2,-260.14"/>
<polygon fill="black" stroke="black" points="395,-260.28 392.78,-252.1 389.42,-259.88 395,-260.28"/>
</g>
<!-- SeuratClustering&#45;&gt;IntegratingTCR -->
<g id="edge5" class="edge">
<title>SeuratClustering&#45;&gt;IntegratingTCR</title>
<path fill="none" stroke="black" d="M343.9,-143.88C320.22,-134.01 290.32,-121.55 265.49,-111.21"/>
<polygon fill="black" stroke="black" points="266.43,-108.56 257.96,-108.07 264.27,-113.73 266.43,-108.56"/>
</g>
<!-- ClusterMarkers -->
<g id="node12" class="node">
<title>ClusterMarkers</title>
<g id="a_node12"><a xlink:title="Markers for clusters of all or selected T cells.">
<polygon fill="none" stroke="black" points="434,-108 336,-108 336,-72 434,-72 434,-108"/>
<text text-anchor="middle" x="385" y="-86.9" font-family="Helvetica,sans-Serif" font-size="12.00">ClusterMarkers</text>
</a>
</g>
</g>
<!-- SeuratClustering&#45;&gt;ClusterMarkers -->
<g id="edge15" class="edge">
<title>SeuratClustering&#45;&gt;ClusterMarkers</title>
<path fill="none" stroke="black" d="M385,-143.7C385,-135.39 385,-125.28 385,-116.14"/>
<polygon fill="black" stroke="black" points="387.8,-116.1 385,-108.1 382.2,-116.1 387.8,-116.1"/>
</g>
<!-- SeuratPreparing -->
<g id="node7" class="node">
<title>SeuratPreparing</title>
<g id="a_node7"><a xlink:title="Load, prepare and apply QC to data, using `Seurat`">
<path fill="none" stroke="black" d="M409,-468C409,-468 329,-468 329,-468 323,-468 317,-462 317,-456 317,-456 317,-444 317,-444 317,-438 323,-432 329,-432 329,-432 409,-432 409,-432 415,-432 421,-438 421,-444 421,-444 421,-456 421,-456 421,-462 415,-468 409,-468"/>
<text text-anchor="middle" x="369" y="-446.9" font-family="Helvetica,sans-Serif" font-size="12.00">SeuratPreparing</text>
</a>
</g>
</g>
<!-- SeuratPreparing&#45;&gt;SeuratClusteringOfAllCells -->
<g id="edge12" class="edge">
<title>SeuratPreparing&#45;&gt;SeuratClusteringOfAllCells</title>
<path fill="none" stroke="black" d="M373.94,-431.7C376.34,-423.3 379.27,-413.07 381.9,-403.86"/>
<polygon fill="black" stroke="black" points="384.61,-404.57 384.11,-396.1 379.22,-403.03 384.61,-404.57"/>
</g>
<!-- SampleInfo -->
<g id="node9" class="node">
<title>SampleInfo</title>
<g id="a_node9"><a xlink:title="List sample information and perform statistics">
<polygon fill="none" stroke="black" points="310,-540 242.93,-522 310,-504 377.07,-522 310,-540"/>
<text text-anchor="middle" x="310" y="-518.9" font-family="Helvetica,sans-Serif" font-size="12.00">SampleInfo</text>
</a>
</g>
</g>
<!-- SampleInfo&#45;&gt;ImmunarchLoading -->
<g id="edge3" class="edge">
<title>SampleInfo&#45;&gt;ImmunarchLoading</title>
<path fill="none" stroke="black" d="M301.69,-506.07C288.11,-481.65 261.01,-432.94 244.59,-403.43"/>
<polygon fill="black" stroke="black" points="247,-402 240.66,-396.37 242.1,-404.72 247,-402"/>
</g>
<!-- SampleInfo&#45;&gt;SeuratPreparing -->
<g id="edge2" class="edge">
<title>SampleInfo&#45;&gt;SeuratPreparing</title>
<path fill="none" stroke="black" d="M321.94,-506.83C329.82,-497.48 340.33,-485.01 349.42,-474.23"/>
<polygon fill="black" stroke="black" points="351.56,-476.03 354.58,-468.11 347.28,-472.43 351.56,-476.03"/>
</g>
</g>
</svg>
