<?xml version="1.0" encoding="UTF-8" standalone="no"?>
<!DOCTYPE svg PUBLIC "-//W3C//DTD SVG 1.1//EN"
 "http://www.w3.org/Graphics/SVG/1.1/DTD/svg11.dtd">
<!-- Generated by graphviz version 7.0.5 (20221231.0122)
 -->
<!-- Title: Immunopipe Pages: 1 -->
<svg width="500pt" height="586pt"
 viewBox="0.00 0.00 499.50 586.00" xmlns="http://www.w3.org/2000/svg" xmlns:xlink="http://www.w3.org/1999/xlink">
<g id="graph0" class="graph" transform="scale(1 1) rotate(0) translate(4 582)">
<title>Immunopipe</title>
<polygon fill="white" stroke="none" points="-4,4 -4,-582 495.5,-582 495.5,4 -4,4"/>
<text text-anchor="middle" x="245.75" y="-562.8" font-family="Helvetica,sans-Serif" font-size="14.00">Immunopipe</text>
<text text-anchor="middle" x="245.75" y="-547.8" font-family="Helvetica,sans-Serif" font-size="14.00"> </text>
<!-- TCellSelection -->
<g id="node1" class="node">
<title>TCellSelection</title>
<path fill="none" stroke="black" d="M231.5,-324C231.5,-324 155.5,-324 155.5,-324 149.5,-324 143.5,-318 143.5,-312 143.5,-312 143.5,-300 143.5,-300 143.5,-294 149.5,-288 155.5,-288 155.5,-288 231.5,-288 231.5,-288 237.5,-288 243.5,-294 243.5,-300 243.5,-300 243.5,-312 243.5,-312 243.5,-318 237.5,-324 231.5,-324"/>
<text text-anchor="middle" x="193.5" y="-302.9" font-family="Helvetica,sans-Serif" font-size="12.00">TCellSelection</text>
</g>
<!-- ModuleScoreCalculator -->
<g id="node2" class="node">
<title>ModuleScoreCalculator</title>
<g id="a_node2"><a xlink:title="Calculate the module scores for each cell">
<path fill="none" stroke="black" d="M259,-252C259,-252 128,-252 128,-252 122,-252 116,-246 116,-240 116,-240 116,-228 116,-228 116,-222 122,-216 128,-216 128,-216 259,-216 259,-216 265,-216 271,-222 271,-228 271,-228 271,-240 271,-240 271,-246 265,-252 259,-252"/>
<text text-anchor="middle" x="193.5" y="-230.9" font-family="Helvetica,sans-Serif" font-size="12.00">ModuleScoreCalculator</text>
</a>
</g>
</g>
<!-- TCellSelection&#45;&gt;ModuleScoreCalculator -->
<g id="edge14" class="edge">
<title>TCellSelection&#45;&gt;ModuleScoreCalculator</title>
<path fill="none" stroke="black" d="M193.5,-287.7C193.5,-279.81 193.5,-270.3 193.5,-261.55"/>
<polygon fill="black" stroke="black" points="196.3,-261.62 193.5,-253.62 190.7,-261.62 196.3,-261.62"/>
</g>
<!-- SeuratClustering -->
<g id="node9" class="node">
<title>SeuratClustering</title>
<g id="a_node9"><a xlink:title="Cluster all T cells or selected T cells selected by `TCellSelection`.">
<path fill="none" stroke="black" d="M239.5,-180C239.5,-180 147.5,-180 147.5,-180 141.5,-180 135.5,-174 135.5,-168 135.5,-168 135.5,-156 135.5,-156 135.5,-150 141.5,-144 147.5,-144 147.5,-144 239.5,-144 239.5,-144 245.5,-144 251.5,-150 251.5,-156 251.5,-156 251.5,-168 251.5,-168 251.5,-174 245.5,-180 239.5,-180"/>
<text text-anchor="middle" x="193.5" y="-158.9" font-family="Helvetica,sans-Serif" font-size="12.00">SeuratClustering</text>
</a>
</g>
</g>
<!-- ModuleScoreCalculator&#45;&gt;SeuratClustering -->
<g id="edge16" class="edge">
<title>ModuleScoreCalculator&#45;&gt;SeuratClustering</title>
<path fill="none" stroke="black" d="M193.5,-215.7C193.5,-207.81 193.5,-198.3 193.5,-189.55"/>
<polygon fill="black" stroke="black" points="196.3,-189.62 193.5,-181.62 190.7,-189.62 196.3,-189.62"/>
</g>
<!-- CloneResidency -->
<g id="node3" class="node">
<title>CloneResidency</title>
<polygon fill="none" stroke="black" points="387.5,-36 277.5,-36 277.5,0 387.5,0 387.5,-36"/>
<text text-anchor="middle" x="332.5" y="-14.9" font-family="Helvetica,sans-Serif" font-size="12.00">CloneResidency</text>
</g>
<!-- CellsDistribution -->
<g id="node4" class="node">
<title>CellsDistribution</title>
<polygon fill="none" stroke="black" points="113,-36 0,-36 0,0 113,0 113,-36"/>
<text text-anchor="middle" x="56.5" y="-14.9" font-family="Helvetica,sans-Serif" font-size="12.00">CellsDistribution</text>
</g>
<!-- ClusterMarkers -->
<g id="node5" class="node">
<title>ClusterMarkers</title>
<g id="a_node5"><a xlink:title="Markers for clusters of all or selected T cells.">
<polygon fill="none" stroke="black" points="199,-108 92,-108 92,-72 199,-72 199,-108"/>
<text text-anchor="middle" x="145.5" y="-86.9" font-family="Helvetica,sans-Serif" font-size="12.00">ClusterMarkers</text>
</a>
</g>
</g>
<!-- SeuratPreparing -->
<g id="node6" class="node">
<title>SeuratPreparing</title>
<g id="a_node6"><a xlink:title="Load, prepare and apply QC to data, using `Seurat`">
<path fill="none" stroke="black" d="M268,-468C268,-468 179,-468 179,-468 173,-468 167,-462 167,-456 167,-456 167,-444 167,-444 167,-438 173,-432 179,-432 179,-432 268,-432 268,-432 274,-432 280,-438 280,-444 280,-444 280,-456 280,-456 280,-462 274,-468 268,-468"/>
<text text-anchor="middle" x="223.5" y="-446.9" font-family="Helvetica,sans-Serif" font-size="12.00">SeuratPreparing</text>
</a>
</g>
</g>
<!-- SeuratClusteringOfAllCells -->
<g id="node7" class="node">
<title>SeuratClusteringOfAllCells</title>
<g id="a_node7"><a xlink:title="Cluster all cells, including T cells and non&#45;T cells using Seurat">
<path fill="none" stroke="black" d="M255,-396C255,-396 106,-396 106,-396 100,-396 94,-390 94,-384 94,-384 94,-372 94,-372 94,-366 100,-360 106,-360 106,-360 255,-360 255,-360 261,-360 267,-366 267,-372 267,-372 267,-384 267,-384 267,-390 261,-396 255,-396"/>
<text text-anchor="middle" x="180.5" y="-374.9" font-family="Helvetica,sans-Serif" font-size="12.00">SeuratClusteringOfAllCells</text>
</a>
</g>
</g>
<!-- SeuratPreparing&#45;&gt;SeuratClusteringOfAllCells -->
<g id="edge3" class="edge">
<title>SeuratPreparing&#45;&gt;SeuratClusteringOfAllCells</title>
<path fill="none" stroke="black" d="M212.87,-431.7C207.77,-423.39 201.56,-413.28 195.94,-404.14"/>
<polygon fill="black" stroke="black" points="198.37,-402.75 191.8,-397.39 193.6,-405.68 198.37,-402.75"/>
</g>
<!-- SeuratClusteringOfAllCells&#45;&gt;TCellSelection -->
<g id="edge1" class="edge">
<title>SeuratClusteringOfAllCells&#45;&gt;TCellSelection</title>
<path fill="none" stroke="black" d="M183.71,-359.7C185.19,-351.73 186.98,-342.1 188.62,-333.26"/>
<polygon fill="black" stroke="black" points="191.34,-333.97 190.05,-325.59 185.83,-332.95 191.34,-333.97"/>
</g>
<!-- ImmunarchLoading -->
<g id="node8" class="node">
<title>ImmunarchLoading</title>
<g id="a_node8"><a xlink:title="Immuarch &#45; Loading data">
<path fill="none" stroke="black" d="M406,-396C406,-396 297,-396 297,-396 291,-396 285,-390 285,-384 285,-384 285,-372 285,-372 285,-366 291,-360 297,-360 297,-360 406,-360 406,-360 412,-360 418,-366 418,-372 418,-372 418,-384 418,-384 418,-390 412,-396 406,-396"/>
<text text-anchor="middle" x="351.5" y="-374.9" font-family="Helvetica,sans-Serif" font-size="12.00">ImmunarchLoading</text>
</a>
</g>
</g>
<!-- ImmunarchLoading&#45;&gt;TCellSelection -->
<g id="edge5" class="edge">
<title>ImmunarchLoading&#45;&gt;TCellSelection</title>
<path fill="none" stroke="black" d="M312.04,-359.52C290.56,-350 263.83,-338.16 241.19,-328.13"/>
<polygon fill="black" stroke="black" points="242.57,-325.68 234.12,-324.99 240.3,-330.8 242.57,-325.68"/>
</g>
<!-- ImmunarchLoading&#45;&gt;CloneResidency -->
<g id="edge13" class="edge">
<title>ImmunarchLoading&#45;&gt;CloneResidency</title>
<path fill="none" stroke="black" d="M351.5,-359.51C351.5,-332.71 351.5,-279.87 351.5,-235 351.5,-235 351.5,-235 351.5,-161 351.5,-120.51 343.82,-74.09 338.22,-45.66"/>
<polygon fill="black" stroke="black" points="340.98,-45.16 336.65,-37.87 335.49,-46.27 340.98,-45.16"/>
</g>
<!-- Immunarch -->
<g id="node10" class="node">
<title>Immunarch</title>
<g id="a_node10"><a xlink:title="Exploration of Single&#45;cell and Bulk T&#45;cell/Antibody Immune Repertoires">
<polygon fill="none" stroke="black" points="491.5,-36 405.5,-36 405.5,0 491.5,0 491.5,-36"/>
<text text-anchor="middle" x="448.5" y="-14.9" font-family="Helvetica,sans-Serif" font-size="12.00">Immunarch</text>
</a>
</g>
</g>
<!-- ImmunarchLoading&#45;&gt;Immunarch -->
<g id="edge8" class="edge">
<title>ImmunarchLoading&#45;&gt;Immunarch</title>
<path fill="none" stroke="black" d="M368.21,-359.81C390.85,-334.62 428.5,-285.2 428.5,-235 428.5,-235 428.5,-235 428.5,-161 428.5,-120.47 436.59,-74.06 442.48,-45.64"/>
<polygon fill="black" stroke="black" points="445.21,-46.27 444.14,-37.86 439.73,-45.1 445.21,-46.27"/>
</g>
<!-- IntegratingTCR -->
<g id="node13" class="node">
<title>IntegratingTCR</title>
<g id="a_node13"><a xlink:title="Attach TCR clone information as meta columns to Seurat object">
<path fill="none" stroke="black" d="M311.5,-108C311.5,-108 229.5,-108 229.5,-108 223.5,-108 217.5,-102 217.5,-96 217.5,-96 217.5,-84 217.5,-84 217.5,-78 223.5,-72 229.5,-72 229.5,-72 311.5,-72 311.5,-72 317.5,-72 323.5,-78 323.5,-84 323.5,-84 323.5,-96 323.5,-96 323.5,-102 317.5,-108 311.5,-108"/>
<text text-anchor="middle" x="270.5" y="-86.9" font-family="Helvetica,sans-Serif" font-size="12.00">IntegratingTCR</text>
</a>
</g>
</g>
<!-- ImmunarchLoading&#45;&gt;IntegratingTCR -->
<g id="edge11" class="edge">
<title>ImmunarchLoading&#45;&gt;IntegratingTCR</title>
<path fill="none" stroke="black" d="M346.56,-359.54C332.82,-311.06 294.17,-174.59 277.88,-117.07"/>
<polygon fill="black" stroke="black" points="280.67,-116.62 275.79,-109.69 275.28,-118.15 280.67,-116.62"/>
</g>
<!-- SeuratClustering&#45;&gt;ClusterMarkers -->
<g id="edge15" class="edge">
<title>SeuratClustering&#45;&gt;ClusterMarkers</title>
<path fill="none" stroke="black" d="M181.63,-143.7C175.88,-135.3 168.86,-125.07 162.55,-115.86"/>
<polygon fill="black" stroke="black" points="164.92,-114.37 158.08,-109.35 160.3,-117.53 164.92,-114.37"/>
</g>
<!-- SeuratClustering&#45;&gt;IntegratingTCR -->
<g id="edge4" class="edge">
<title>SeuratClustering&#45;&gt;IntegratingTCR</title>
<path fill="none" stroke="black" d="M212.53,-143.7C222.16,-134.95 233.99,-124.19 244.44,-114.69"/>
<polygon fill="black" stroke="black" points="246.26,-116.82 250.3,-109.37 242.5,-112.67 246.26,-116.82"/>
</g>
<!-- SeuratClusterStats -->
<g id="node11" class="node">
<title>SeuratClusterStats</title>
<polygon fill="none" stroke="black" points="259.5,-36 131.5,-36 131.5,0 259.5,0 259.5,-36"/>
<text text-anchor="middle" x="195.5" y="-14.9" font-family="Helvetica,sans-Serif" font-size="12.00">SeuratClusterStats</text>
</g>
<!-- SampleInfo -->
<g id="node12" class="node">
<title>SampleInfo</title>
<g id="a_node12"><a xlink:title="List sample information and perform statistics">
<polygon fill="none" stroke="black" points="265.5,-540 191.5,-522 265.5,-504 339.5,-522 265.5,-540"/>
<text text-anchor="middle" x="265.5" y="-518.9" font-family="Helvetica,sans-Serif" font-size="12.00">SampleInfo</text>
</a>
</g>
</g>
<!-- SampleInfo&#45;&gt;SeuratPreparing -->
<g id="edge6" class="edge">
<title>SampleInfo&#45;&gt;SeuratPreparing</title>
<path fill="none" stroke="black" d="M256.39,-505.81C251.18,-497.14 244.53,-486.05 238.57,-476.12"/>
<polygon fill="black" stroke="black" points="241.07,-474.84 234.55,-469.42 236.27,-477.73 241.07,-474.84"/>
</g>
<!-- SampleInfo&#45;&gt;ImmunarchLoading -->
<g id="edge10" class="edge">
<title>SampleInfo&#45;&gt;ImmunarchLoading</title>
<path fill="none" stroke="black" d="M274.7,-505.8C289.44,-481.48 318.47,-433.53 336.32,-404.07"/>
<polygon fill="black" stroke="black" points="338.5,-405.88 340.25,-397.58 333.71,-402.97 338.5,-405.88"/>
</g>
<!-- IntegratingTCR&#45;&gt;CloneResidency -->
<g id="edge12" class="edge">
<title>IntegratingTCR&#45;&gt;CloneResidency</title>
<path fill="none" stroke="black" d="M285.83,-71.7C293.48,-63.05 302.87,-52.45 311.22,-43.03"/>
<polygon fill="black" stroke="black" points="313.14,-45.08 316.35,-37.24 308.95,-41.37 313.14,-45.08"/>
</g>
<!-- IntegratingTCR&#45;&gt;CellsDistribution -->
<g id="edge2" class="edge">
<title>IntegratingTCR&#45;&gt;CellsDistribution</title>
<path fill="none" stroke="black" d="M217.05,-71.52C187.19,-61.75 149.84,-49.53 118.67,-39.34"/>
<polygon fill="black" stroke="black" points="119.55,-36.68 111.08,-36.85 117.81,-42 119.55,-36.68"/>
</g>
<!-- IntegratingTCR&#45;&gt;Immunarch -->
<g id="edge7" class="edge">
<title>IntegratingTCR&#45;&gt;Immunarch</title>
<path fill="none" stroke="black" d="M314.96,-71.52C339.75,-61.77 370.76,-49.57 396.65,-39.39"/>
<polygon fill="black" stroke="black" points="397.39,-42.11 403.81,-36.57 395.34,-36.9 397.39,-42.11"/>
</g>
<!-- IntegratingTCR&#45;&gt;SeuratClusterStats -->
<g id="edge9" class="edge">
<title>IntegratingTCR&#45;&gt;SeuratClusterStats</title>
<path fill="none" stroke="black" d="M251.96,-71.7C242.59,-62.95 231.06,-52.19 220.88,-42.69"/>
<polygon fill="black" stroke="black" points="222.95,-40.79 215.19,-37.38 219.13,-44.89 222.95,-40.79"/>
</g>
</g>
</svg>
