<?xml version="1.0" encoding="UTF-8" standalone="no"?>
<!DOCTYPE svg PUBLIC "-//W3C//DTD SVG 1.1//EN"
 "http://www.w3.org/Graphics/SVG/1.1/DTD/svg11.dtd">
<!-- Generated by graphviz version 3.0.0 (20220315.2325)
 -->
<!-- Title: Immunopipe Pages: 1 -->
<svg width="501pt" height="586pt"
 viewBox="0.00 0.00 500.50 586.00" xmlns="http://www.w3.org/2000/svg" xmlns:xlink="http://www.w3.org/1999/xlink">
<g id="graph0" class="graph" transform="scale(1 1) rotate(0) translate(4 582)">
<title>Immunopipe</title>
<polygon fill="white" stroke="transparent" points="-4,4 -4,-582 496.5,-582 496.5,4 -4,4"/>
<text text-anchor="middle" x="246.25" y="-562.8" font-family="Helvetica,sans-Serif" font-size="14.00">Immunopipe</text>
<text text-anchor="middle" x="246.25" y="-547.8" font-family="Helvetica,sans-Serif" font-size="14.00"> </text>
<!-- ClusterMarkers -->
<g id="node1" class="node">
<title>ClusterMarkers</title>
<g id="a_node1"><a xlink:title="Markers for clusters of all or selected T cells.">
<polygon fill="none" stroke="black" points="133.5,-108 35.5,-108 35.5,-72 133.5,-72 133.5,-108"/>
<text text-anchor="middle" x="84.5" y="-86.9" font-family="Helvetica,sans-Serif" font-size="12.00">ClusterMarkers</text>
</a>
</g>
</g>
<!-- SeuratClusteringOfAllCells -->
<g id="node2" class="node">
<title>SeuratClusteringOfAllCells</title>
<g id="a_node2"><a xlink:title="Cluster all cells, including T cells and non&#45;T cells using Seurat">
<path fill="none" stroke="black" d="M149,-396C149,-396 12,-396 12,-396 6,-396 0,-390 0,-384 0,-384 0,-372 0,-372 0,-366 6,-360 12,-360 12,-360 149,-360 149,-360 155,-360 161,-366 161,-372 161,-372 161,-384 161,-384 161,-390 155,-396 149,-396"/>
<text text-anchor="middle" x="80.5" y="-374.9" font-family="Helvetica,sans-Serif" font-size="12.00">SeuratClusteringOfAllCells</text>
</a>
</g>
</g>
<!-- TCellSelection -->
<g id="node3" class="node">
<title>TCellSelection</title>
<path fill="none" stroke="black" d="M116.5,-324C116.5,-324 44.5,-324 44.5,-324 38.5,-324 32.5,-318 32.5,-312 32.5,-312 32.5,-300 32.5,-300 32.5,-294 38.5,-288 44.5,-288 44.5,-288 116.5,-288 116.5,-288 122.5,-288 128.5,-294 128.5,-300 128.5,-300 128.5,-312 128.5,-312 128.5,-318 122.5,-324 116.5,-324"/>
<text text-anchor="middle" x="80.5" y="-302.9" font-family="Helvetica,sans-Serif" font-size="12.00">TCellSelection</text>
</g>
<!-- SeuratClusteringOfAllCells&#45;&gt;TCellSelection -->
<g id="edge2" class="edge">
<title>SeuratClusteringOfAllCells&#45;&gt;TCellSelection</title>
<path fill="none" stroke="black" d="M80.5,-359.7C80.5,-351.39 80.5,-341.28 80.5,-332.14"/>
<polygon fill="black" stroke="black" points="83.3,-332.1 80.5,-324.1 77.7,-332.1 83.3,-332.1"/>
</g>
<!-- ModuleScoreCalculator -->
<g id="node8" class="node">
<title>ModuleScoreCalculator</title>
<g id="a_node8"><a xlink:title="Calculate the module scores for each cell">
<path fill="none" stroke="black" d="M135,-252C135,-252 16,-252 16,-252 10,-252 4,-246 4,-240 4,-240 4,-228 4,-228 4,-222 10,-216 16,-216 16,-216 135,-216 135,-216 141,-216 147,-222 147,-228 147,-228 147,-240 147,-240 147,-246 141,-252 135,-252"/>
<text text-anchor="middle" x="75.5" y="-230.9" font-family="Helvetica,sans-Serif" font-size="12.00">ModuleScoreCalculator</text>
</a>
</g>
</g>
<!-- TCellSelection&#45;&gt;ModuleScoreCalculator -->
<g id="edge3" class="edge">
<title>TCellSelection&#45;&gt;ModuleScoreCalculator</title>
<path fill="none" stroke="black" d="M79.26,-287.7C78.67,-279.39 77.95,-269.28 77.3,-260.14"/>
<polygon fill="black" stroke="black" points="80.08,-259.88 76.72,-252.1 74.5,-260.28 80.08,-259.88"/>
</g>
<!-- SeuratClustering -->
<g id="node4" class="node">
<title>SeuratClustering</title>
<g id="a_node4"><a xlink:title="Cluster all T cells or selected T cells selected by `TCellSelection`.">
<path fill="none" stroke="black" d="M126,-180C126,-180 43,-180 43,-180 37,-180 31,-174 31,-168 31,-168 31,-156 31,-156 31,-150 37,-144 43,-144 43,-144 126,-144 126,-144 132,-144 138,-150 138,-156 138,-156 138,-168 138,-168 138,-174 132,-180 126,-180"/>
<text text-anchor="middle" x="84.5" y="-158.9" font-family="Helvetica,sans-Serif" font-size="12.00">SeuratClustering</text>
</a>
</g>
</g>
<!-- SeuratClustering&#45;&gt;ClusterMarkers -->
<g id="edge11" class="edge">
<title>SeuratClustering&#45;&gt;ClusterMarkers</title>
<path fill="none" stroke="black" d="M84.5,-143.7C84.5,-135.39 84.5,-125.28 84.5,-116.14"/>
<polygon fill="black" stroke="black" points="87.3,-116.1 84.5,-108.1 81.7,-116.1 87.3,-116.1"/>
</g>
<!-- IntegratingTCR -->
<g id="node13" class="node">
<title>IntegratingTCR</title>
<g id="a_node13"><a xlink:title="Attach TCR clone information as meta columns to Seurat object">
<path fill="none" stroke="black" d="M289.5,-108C289.5,-108 215.5,-108 215.5,-108 209.5,-108 203.5,-102 203.5,-96 203.5,-96 203.5,-84 203.5,-84 203.5,-78 209.5,-72 215.5,-72 215.5,-72 289.5,-72 289.5,-72 295.5,-72 301.5,-78 301.5,-84 301.5,-84 301.5,-96 301.5,-96 301.5,-102 295.5,-108 289.5,-108"/>
<text text-anchor="middle" x="252.5" y="-86.9" font-family="Helvetica,sans-Serif" font-size="12.00">IntegratingTCR</text>
</a>
</g>
</g>
<!-- SeuratClustering&#45;&gt;IntegratingTCR -->
<g id="edge6" class="edge">
<title>SeuratClustering&#45;&gt;IntegratingTCR</title>
<path fill="none" stroke="black" d="M125.6,-143.88C149.28,-134.01 179.18,-121.55 204.01,-111.21"/>
<polygon fill="black" stroke="black" points="205.23,-113.73 211.54,-108.07 203.07,-108.56 205.23,-113.73"/>
</g>
<!-- SeuratPreparing -->
<g id="node5" class="node">
<title>SeuratPreparing</title>
<g id="a_node5"><a xlink:title="Load, prepare and apply QC to data, using `Seurat`">
<path fill="none" stroke="black" d="M159.5,-468C159.5,-468 79.5,-468 79.5,-468 73.5,-468 67.5,-462 67.5,-456 67.5,-456 67.5,-444 67.5,-444 67.5,-438 73.5,-432 79.5,-432 79.5,-432 159.5,-432 159.5,-432 165.5,-432 171.5,-438 171.5,-444 171.5,-444 171.5,-456 171.5,-456 171.5,-462 165.5,-468 159.5,-468"/>
<text text-anchor="middle" x="119.5" y="-446.9" font-family="Helvetica,sans-Serif" font-size="12.00">SeuratPreparing</text>
</a>
</g>
</g>
<!-- SeuratPreparing&#45;&gt;SeuratClusteringOfAllCells -->
<g id="edge9" class="edge">
<title>SeuratPreparing&#45;&gt;SeuratClusteringOfAllCells</title>
<path fill="none" stroke="black" d="M109.86,-431.7C105.09,-423.14 99.25,-412.66 94.04,-403.3"/>
<polygon fill="black" stroke="black" points="96.37,-401.73 90.03,-396.1 91.48,-404.46 96.37,-401.73"/>
</g>
<!-- SeuratClusterStats -->
<g id="node6" class="node">
<title>SeuratClusterStats</title>
<polygon fill="none" stroke="black" points="398,-36 281,-36 281,0 398,0 398,-36"/>
<text text-anchor="middle" x="339.5" y="-14.9" font-family="Helvetica,sans-Serif" font-size="12.00">SeuratClusterStats</text>
</g>
<!-- SampleInfo -->
<g id="node7" class="node">
<title>SampleInfo</title>
<g id="a_node7"><a xlink:title="List sample information and perform statistics">
<polygon fill="none" stroke="black" points="159.5,-540 92.43,-522 159.5,-504 226.57,-522 159.5,-540"/>
<text text-anchor="middle" x="159.5" y="-518.9" font-family="Helvetica,sans-Serif" font-size="12.00">SampleInfo</text>
</a>
</g>
</g>
<!-- SampleInfo&#45;&gt;SeuratPreparing -->
<g id="edge15" class="edge">
<title>SampleInfo&#45;&gt;SeuratPreparing</title>
<path fill="none" stroke="black" d="M151.02,-506.15C145.89,-497.18 139.22,-485.52 133.35,-475.23"/>
<polygon fill="black" stroke="black" points="135.64,-473.6 129.24,-468.04 130.78,-476.38 135.64,-473.6"/>
</g>
<!-- ImmunarchLoading -->
<g id="node12" class="node">
<title>ImmunarchLoading</title>
<g id="a_node12"><a xlink:title="Immuarch &#45; Loading data">
<path fill="none" stroke="black" d="M286,-396C286,-396 191,-396 191,-396 185,-396 179,-390 179,-384 179,-384 179,-372 179,-372 179,-366 185,-360 191,-360 191,-360 286,-360 286,-360 292,-360 298,-366 298,-372 298,-372 298,-384 298,-384 298,-390 292,-396 286,-396"/>
<text text-anchor="middle" x="238.5" y="-374.9" font-family="Helvetica,sans-Serif" font-size="12.00">ImmunarchLoading</text>
</a>
</g>
</g>
<!-- SampleInfo&#45;&gt;ImmunarchLoading -->
<g id="edge13" class="edge">
<title>SampleInfo&#45;&gt;ImmunarchLoading</title>
<path fill="none" stroke="black" d="M167.81,-506.07C181.39,-481.65 208.49,-432.94 224.91,-403.43"/>
<polygon fill="black" stroke="black" points="227.4,-404.72 228.84,-396.37 222.5,-402 227.4,-404.72"/>
</g>
<!-- ModuleScoreCalculator&#45;&gt;SeuratClustering -->
<g id="edge4" class="edge">
<title>ModuleScoreCalculator&#45;&gt;SeuratClustering</title>
<path fill="none" stroke="black" d="M77.72,-215.7C78.79,-207.39 80.09,-197.28 81.27,-188.14"/>
<polygon fill="black" stroke="black" points="84.06,-188.4 82.3,-180.1 78.5,-187.68 84.06,-188.4"/>
</g>
<!-- Immunarch -->
<g id="node9" class="node">
<title>Immunarch</title>
<g id="a_node9"><a xlink:title="Exploration of Single&#45;cell and Bulk T&#45;cell/Antibody Immune Repertoires">
<polygon fill="none" stroke="black" points="492.5,-36 416.5,-36 416.5,0 492.5,0 492.5,-36"/>
<text text-anchor="middle" x="454.5" y="-14.9" font-family="Helvetica,sans-Serif" font-size="12.00">Immunarch</text>
</a>
</g>
</g>
<!-- CloneResidency -->
<g id="node10" class="node">
<title>CloneResidency</title>
<polygon fill="none" stroke="black" points="139.5,-36 33.5,-36 33.5,0 139.5,0 139.5,-36"/>
<text text-anchor="middle" x="86.5" y="-14.9" font-family="Helvetica,sans-Serif" font-size="12.00">CloneResidency</text>
</g>
<!-- CellsDistribution -->
<g id="node11" class="node">
<title>CellsDistribution</title>
<polygon fill="none" stroke="black" points="263,-36 158,-36 158,0 263,0 263,-36"/>
<text text-anchor="middle" x="210.5" y="-14.9" font-family="Helvetica,sans-Serif" font-size="12.00">CellsDistribution</text>
</g>
<!-- ImmunarchLoading&#45;&gt;TCellSelection -->
<g id="edge8" class="edge">
<title>ImmunarchLoading&#45;&gt;TCellSelection</title>
<path fill="none" stroke="black" d="M199.85,-359.88C177.67,-350.05 149.7,-337.66 126.41,-327.34"/>
<polygon fill="black" stroke="black" points="127.47,-324.75 119.03,-324.07 125.21,-329.87 127.47,-324.75"/>
</g>
<!-- ImmunarchLoading&#45;&gt;Immunarch -->
<g id="edge1" class="edge">
<title>ImmunarchLoading&#45;&gt;Immunarch</title>
<path fill="none" stroke="black" d="M289.76,-359.94C341.09,-339.24 412.5,-298.95 412.5,-235 412.5,-235 412.5,-235 412.5,-161 412.5,-118.23 430.24,-71.08 442.66,-43.31"/>
<polygon fill="black" stroke="black" points="445.22,-44.45 446,-36.01 440.12,-42.11 445.22,-44.45"/>
</g>
<!-- ImmunarchLoading&#45;&gt;CloneResidency -->
<g id="edge5" class="edge">
<title>ImmunarchLoading&#45;&gt;CloneResidency</title>
<path fill="none" stroke="black" d="M225.14,-359.72C206.65,-334.03 175.5,-283.55 175.5,-235 175.5,-235 175.5,-235 175.5,-161 175.5,-118.81 165.76,-107.2 142.5,-72 135.11,-60.82 124.94,-50.29 115.3,-41.6"/>
<polygon fill="black" stroke="black" points="116.94,-39.31 109.07,-36.16 113.26,-43.53 116.94,-39.31"/>
</g>
<!-- ImmunarchLoading&#45;&gt;IntegratingTCR -->
<g id="edge14" class="edge">
<title>ImmunarchLoading&#45;&gt;IntegratingTCR</title>
<path fill="none" stroke="black" d="M239.33,-359.97C241.7,-311.7 248.45,-173.8 251.25,-116.47"/>
<polygon fill="black" stroke="black" points="254.06,-116.43 251.65,-108.31 248.46,-116.16 254.06,-116.43"/>
</g>
<!-- IntegratingTCR&#45;&gt;SeuratClusterStats -->
<g id="edge10" class="edge">
<title>IntegratingTCR&#45;&gt;SeuratClusterStats</title>
<path fill="none" stroke="black" d="M274.01,-71.7C285.38,-62.54 299.49,-51.19 311.69,-41.38"/>
<polygon fill="black" stroke="black" points="313.76,-43.3 318.24,-36.1 310.25,-38.94 313.76,-43.3"/>
</g>
<!-- IntegratingTCR&#45;&gt;Immunarch -->
<g id="edge7" class="edge">
<title>IntegratingTCR&#45;&gt;Immunarch</title>
<path fill="none" stroke="black" d="M301.79,-72.39C332.29,-62.06 372.22,-48.41 407.5,-36 407.86,-35.87 408.22,-35.75 408.58,-35.62"/>
<polygon fill="black" stroke="black" points="409.7,-38.19 416.3,-32.88 407.82,-32.92 409.7,-38.19"/>
</g>
<!-- IntegratingTCR&#45;&gt;CloneResidency -->
<g id="edge16" class="edge">
<title>IntegratingTCR&#45;&gt;CloneResidency</title>
<path fill="none" stroke="black" d="M211.89,-71.88C188.49,-62.01 158.95,-49.55 134.42,-39.21"/>
<polygon fill="black" stroke="black" points="135.44,-36.6 126.98,-36.07 133.26,-41.76 135.44,-36.6"/>
</g>
<!-- IntegratingTCR&#45;&gt;CellsDistribution -->
<g id="edge12" class="edge">
<title>IntegratingTCR&#45;&gt;CellsDistribution</title>
<path fill="none" stroke="black" d="M242.12,-71.7C236.93,-63.05 230.57,-52.45 224.92,-43.03"/>
<polygon fill="black" stroke="black" points="227.28,-41.52 220.76,-36.1 222.48,-44.4 227.28,-41.52"/>
</g>
</g>
</svg>
