<?xml version="1.0" encoding="UTF-8" standalone="no"?>
<!DOCTYPE svg PUBLIC "-//W3C//DTD SVG 1.1//EN"
 "http://www.w3.org/Graphics/SVG/1.1/DTD/svg11.dtd">
<!-- Generated by graphviz version 3.0.0 (20220315.2325)
 -->
<!-- Title: Immunopipe Pages: 1 -->
<svg width="467pt" height="586pt"
 viewBox="0.00 0.00 466.50 586.00" xmlns="http://www.w3.org/2000/svg" xmlns:xlink="http://www.w3.org/1999/xlink">
<g id="graph0" class="graph" transform="scale(1 1) rotate(0) translate(4 582)">
<title>Immunopipe</title>
<polygon fill="white" stroke="transparent" points="-4,4 -4,-582 462.5,-582 462.5,4 -4,4"/>
<text text-anchor="middle" x="229.25" y="-562.8" font-family="Helvetica,sans-Serif" font-size="14.00">Immunopipe</text>
<text text-anchor="middle" x="229.25" y="-547.8" font-family="Helvetica,sans-Serif" font-size="14.00"> </text>
<!-- ClusterMarkers -->
<g id="node1" class="node">
<title>ClusterMarkers</title>
<g id="a_node1"><a xlink:title="Markers for clusters of all or selected T cells.">
<polygon fill="none" stroke="black" points="170.5,-108 72.5,-108 72.5,-72 170.5,-72 170.5,-108"/>
<text text-anchor="middle" x="121.5" y="-86.9" font-family="Helvetica,sans-Serif" font-size="12.00">ClusterMarkers</text>
</a>
</g>
</g>
<!-- Immunarch -->
<g id="node2" class="node">
<title>Immunarch</title>
<g id="a_node2"><a xlink:title="Exploration of Single&#45;cell and Bulk T&#45;cell/Antibody Immune Repertoires">
<polygon fill="none" stroke="black" points="334.5,-36 258.5,-36 258.5,0 334.5,0 334.5,-36"/>
<text text-anchor="middle" x="296.5" y="-14.9" font-family="Helvetica,sans-Serif" font-size="12.00">Immunarch</text>
</a>
</g>
</g>
<!-- CloneResidency -->
<g id="node3" class="node">
<title>CloneResidency</title>
<polygon fill="none" stroke="black" points="458.5,-36 352.5,-36 352.5,0 458.5,0 458.5,-36"/>
<text text-anchor="middle" x="405.5" y="-14.9" font-family="Helvetica,sans-Serif" font-size="12.00">CloneResidency</text>
</g>
<!-- SeuratPreparing -->
<g id="node4" class="node">
<title>SeuratPreparing</title>
<g id="a_node4"><a xlink:title="Load, prepare and apply QC to data, using `Seurat`">
<path fill="none" stroke="black" d="M235.5,-468C235.5,-468 155.5,-468 155.5,-468 149.5,-468 143.5,-462 143.5,-456 143.5,-456 143.5,-444 143.5,-444 143.5,-438 149.5,-432 155.5,-432 155.5,-432 235.5,-432 235.5,-432 241.5,-432 247.5,-438 247.5,-444 247.5,-444 247.5,-456 247.5,-456 247.5,-462 241.5,-468 235.5,-468"/>
<text text-anchor="middle" x="195.5" y="-446.9" font-family="Helvetica,sans-Serif" font-size="12.00">SeuratPreparing</text>
</a>
</g>
</g>
<!-- SeuratClusteringOfAllCells -->
<g id="node12" class="node">
<title>SeuratClusteringOfAllCells</title>
<g id="a_node12"><a xlink:title="Cluster all cells, including T cells and non&#45;T cells using Seurat">
<path fill="none" stroke="black" d="M225,-396C225,-396 88,-396 88,-396 82,-396 76,-390 76,-384 76,-384 76,-372 76,-372 76,-366 82,-360 88,-360 88,-360 225,-360 225,-360 231,-360 237,-366 237,-372 237,-372 237,-384 237,-384 237,-390 231,-396 225,-396"/>
<text text-anchor="middle" x="156.5" y="-374.9" font-family="Helvetica,sans-Serif" font-size="12.00">SeuratClusteringOfAllCells</text>
</a>
</g>
</g>
<!-- SeuratPreparing&#45;&gt;SeuratClusteringOfAllCells -->
<g id="edge12" class="edge">
<title>SeuratPreparing&#45;&gt;SeuratClusteringOfAllCells</title>
<path fill="none" stroke="black" d="M185.86,-431.7C181.09,-423.14 175.25,-412.66 170.04,-403.3"/>
<polygon fill="black" stroke="black" points="172.37,-401.73 166.03,-396.1 167.48,-404.46 172.37,-401.73"/>
</g>
<!-- SeuratClusterStats -->
<g id="node5" class="node">
<title>SeuratClusterStats</title>
<polygon fill="none" stroke="black" points="117,-36 0,-36 0,0 117,0 117,-36"/>
<text text-anchor="middle" x="58.5" y="-14.9" font-family="Helvetica,sans-Serif" font-size="12.00">SeuratClusterStats</text>
</g>
<!-- ImmunarchLoading -->
<g id="node6" class="node">
<title>ImmunarchLoading</title>
<g id="a_node6"><a xlink:title="Immuarch &#45; Loading data">
<path fill="none" stroke="black" d="M362,-396C362,-396 267,-396 267,-396 261,-396 255,-390 255,-384 255,-384 255,-372 255,-372 255,-366 261,-360 267,-360 267,-360 362,-360 362,-360 368,-360 374,-366 374,-372 374,-372 374,-384 374,-384 374,-390 368,-396 362,-396"/>
<text text-anchor="middle" x="314.5" y="-374.9" font-family="Helvetica,sans-Serif" font-size="12.00">ImmunarchLoading</text>
</a>
</g>
</g>
<!-- ImmunarchLoading&#45;&gt;Immunarch -->
<g id="edge2" class="edge">
<title>ImmunarchLoading&#45;&gt;Immunarch</title>
<path fill="none" stroke="black" d="M314.5,-359.95C314.5,-333.29 314.5,-280.11 314.5,-235 314.5,-235 314.5,-235 314.5,-161 314.5,-120.01 307.03,-72.9 301.71,-44.56"/>
<polygon fill="black" stroke="black" points="304.4,-43.73 300.14,-36.4 298.9,-44.78 304.4,-43.73"/>
</g>
<!-- ImmunarchLoading&#45;&gt;CloneResidency -->
<g id="edge5" class="edge">
<title>ImmunarchLoading&#45;&gt;CloneResidency</title>
<path fill="none" stroke="black" d="M330.34,-359.65C351.81,-334.27 387.5,-284.62 387.5,-235 387.5,-235 387.5,-235 387.5,-161 387.5,-120.01 394.97,-72.9 400.29,-44.56"/>
<polygon fill="black" stroke="black" points="403.1,-44.78 401.86,-36.4 397.6,-43.73 403.1,-44.78"/>
</g>
<!-- IntegratingTCR -->
<g id="node8" class="node">
<title>IntegratingTCR</title>
<g id="a_node8"><a xlink:title="Attach TCR clone information as meta columns to Seurat object">
<path fill="none" stroke="black" d="M274.5,-108C274.5,-108 200.5,-108 200.5,-108 194.5,-108 188.5,-102 188.5,-96 188.5,-96 188.5,-84 188.5,-84 188.5,-78 194.5,-72 200.5,-72 200.5,-72 274.5,-72 274.5,-72 280.5,-72 286.5,-78 286.5,-84 286.5,-84 286.5,-96 286.5,-96 286.5,-102 280.5,-108 274.5,-108"/>
<text text-anchor="middle" x="237.5" y="-86.9" font-family="Helvetica,sans-Serif" font-size="12.00">IntegratingTCR</text>
</a>
</g>
</g>
<!-- ImmunarchLoading&#45;&gt;IntegratingTCR -->
<g id="edge15" class="edge">
<title>ImmunarchLoading&#45;&gt;IntegratingTCR</title>
<path fill="none" stroke="black" d="M309.91,-359.97C296.89,-311.6 259.64,-173.23 244.26,-116.12"/>
<polygon fill="black" stroke="black" points="246.94,-115.3 242.16,-108.31 241.54,-116.76 246.94,-115.3"/>
</g>
<!-- TCellSelection -->
<g id="node13" class="node">
<title>TCellSelection</title>
<path fill="none" stroke="black" d="M202.5,-324C202.5,-324 130.5,-324 130.5,-324 124.5,-324 118.5,-318 118.5,-312 118.5,-312 118.5,-300 118.5,-300 118.5,-294 124.5,-288 130.5,-288 130.5,-288 202.5,-288 202.5,-288 208.5,-288 214.5,-294 214.5,-300 214.5,-300 214.5,-312 214.5,-312 214.5,-318 208.5,-324 202.5,-324"/>
<text text-anchor="middle" x="166.5" y="-302.9" font-family="Helvetica,sans-Serif" font-size="12.00">TCellSelection</text>
</g>
<!-- ImmunarchLoading&#45;&gt;TCellSelection -->
<g id="edge11" class="edge">
<title>ImmunarchLoading&#45;&gt;TCellSelection</title>
<path fill="none" stroke="black" d="M278.3,-359.88C257.7,-350.14 231.77,-337.87 210.07,-327.61"/>
<polygon fill="black" stroke="black" points="211.02,-324.96 202.59,-324.07 208.62,-330.02 211.02,-324.96"/>
</g>
<!-- SampleInfo -->
<g id="node7" class="node">
<title>SampleInfo</title>
<g id="a_node7"><a xlink:title="List sample information and perform statistics">
<polygon fill="none" stroke="black" points="235.5,-540 168.43,-522 235.5,-504 302.57,-522 235.5,-540"/>
<text text-anchor="middle" x="235.5" y="-518.9" font-family="Helvetica,sans-Serif" font-size="12.00">SampleInfo</text>
</a>
</g>
</g>
<!-- SampleInfo&#45;&gt;SeuratPreparing -->
<g id="edge16" class="edge">
<title>SampleInfo&#45;&gt;SeuratPreparing</title>
<path fill="none" stroke="black" d="M227.02,-506.15C221.89,-497.18 215.22,-485.52 209.35,-475.23"/>
<polygon fill="black" stroke="black" points="211.64,-473.6 205.24,-468.04 206.78,-476.38 211.64,-473.6"/>
</g>
<!-- SampleInfo&#45;&gt;ImmunarchLoading -->
<g id="edge8" class="edge">
<title>SampleInfo&#45;&gt;ImmunarchLoading</title>
<path fill="none" stroke="black" d="M243.81,-506.07C257.39,-481.65 284.49,-432.94 300.91,-403.43"/>
<polygon fill="black" stroke="black" points="303.4,-404.72 304.84,-396.37 298.5,-402 303.4,-404.72"/>
</g>
<!-- IntegratingTCR&#45;&gt;Immunarch -->
<g id="edge9" class="edge">
<title>IntegratingTCR&#45;&gt;Immunarch</title>
<path fill="none" stroke="black" d="M252.08,-71.7C259.51,-62.88 268.66,-52.03 276.71,-42.47"/>
<polygon fill="black" stroke="black" points="279.07,-44.03 282.08,-36.1 274.79,-40.42 279.07,-44.03"/>
</g>
<!-- IntegratingTCR&#45;&gt;CloneResidency -->
<g id="edge13" class="edge">
<title>IntegratingTCR&#45;&gt;CloneResidency</title>
<path fill="none" stroke="black" d="M278.6,-71.88C302.28,-62.01 332.18,-49.55 357.01,-39.21"/>
<polygon fill="black" stroke="black" points="358.23,-41.73 364.54,-36.07 356.07,-36.56 358.23,-41.73"/>
</g>
<!-- IntegratingTCR&#45;&gt;SeuratClusterStats -->
<g id="edge7" class="edge">
<title>IntegratingTCR&#45;&gt;SeuratClusterStats</title>
<path fill="none" stroke="black" d="M193.71,-71.88C168.37,-61.97 136.35,-49.44 109.83,-39.07"/>
<polygon fill="black" stroke="black" points="110.62,-36.37 102.15,-36.07 108.58,-41.59 110.62,-36.37"/>
</g>
<!-- CellsDistribution -->
<g id="node9" class="node">
<title>CellsDistribution</title>
<polygon fill="none" stroke="black" points="240,-36 135,-36 135,0 240,0 240,-36"/>
<text text-anchor="middle" x="187.5" y="-14.9" font-family="Helvetica,sans-Serif" font-size="12.00">CellsDistribution</text>
</g>
<!-- IntegratingTCR&#45;&gt;CellsDistribution -->
<g id="edge4" class="edge">
<title>IntegratingTCR&#45;&gt;CellsDistribution</title>
<path fill="none" stroke="black" d="M225.14,-71.7C218.9,-62.97 211.24,-52.24 204.46,-42.75"/>
<polygon fill="black" stroke="black" points="206.65,-40.99 199.72,-36.1 202.09,-44.24 206.65,-40.99"/>
</g>
<!-- SeuratClustering -->
<g id="node10" class="node">
<title>SeuratClustering</title>
<g id="a_node10"><a xlink:title="Cluster all T cells or selected T cells selected by `TCellSelection`.">
<path fill="none" stroke="black" d="M208,-180C208,-180 125,-180 125,-180 119,-180 113,-174 113,-168 113,-168 113,-156 113,-156 113,-150 119,-144 125,-144 125,-144 208,-144 208,-144 214,-144 220,-150 220,-156 220,-156 220,-168 220,-168 220,-174 214,-180 208,-180"/>
<text text-anchor="middle" x="166.5" y="-158.9" font-family="Helvetica,sans-Serif" font-size="12.00">SeuratClustering</text>
</a>
</g>
</g>
<!-- SeuratClustering&#45;&gt;ClusterMarkers -->
<g id="edge6" class="edge">
<title>SeuratClustering&#45;&gt;ClusterMarkers</title>
<path fill="none" stroke="black" d="M155.38,-143.7C149.82,-135.05 143,-124.45 136.95,-115.03"/>
<polygon fill="black" stroke="black" points="139.18,-113.32 132.5,-108.1 134.47,-116.35 139.18,-113.32"/>
</g>
<!-- SeuratClustering&#45;&gt;IntegratingTCR -->
<g id="edge3" class="edge">
<title>SeuratClustering&#45;&gt;IntegratingTCR</title>
<path fill="none" stroke="black" d="M184.05,-143.7C193.16,-134.71 204.42,-123.61 214.25,-113.92"/>
<polygon fill="black" stroke="black" points="216.42,-115.71 220.15,-108.1 212.49,-111.73 216.42,-115.71"/>
</g>
<!-- ModuleScoreCalculator -->
<g id="node11" class="node">
<title>ModuleScoreCalculator</title>
<g id="a_node11"><a xlink:title="Calculate the module scores for each cell">
<path fill="none" stroke="black" d="M226,-252C226,-252 107,-252 107,-252 101,-252 95,-246 95,-240 95,-240 95,-228 95,-228 95,-222 101,-216 107,-216 107,-216 226,-216 226,-216 232,-216 238,-222 238,-228 238,-228 238,-240 238,-240 238,-246 232,-252 226,-252"/>
<text text-anchor="middle" x="166.5" y="-230.9" font-family="Helvetica,sans-Serif" font-size="12.00">ModuleScoreCalculator</text>
</a>
</g>
</g>
<!-- ModuleScoreCalculator&#45;&gt;SeuratClustering -->
<g id="edge1" class="edge">
<title>ModuleScoreCalculator&#45;&gt;SeuratClustering</title>
<path fill="none" stroke="black" d="M166.5,-215.7C166.5,-207.39 166.5,-197.28 166.5,-188.14"/>
<polygon fill="black" stroke="black" points="169.3,-188.1 166.5,-180.1 163.7,-188.1 169.3,-188.1"/>
</g>
<!-- SeuratClusteringOfAllCells&#45;&gt;TCellSelection -->
<g id="edge10" class="edge">
<title>SeuratClusteringOfAllCells&#45;&gt;TCellSelection</title>
<path fill="none" stroke="black" d="M158.97,-359.7C160.16,-351.39 161.6,-341.28 162.91,-332.14"/>
<polygon fill="black" stroke="black" points="165.7,-332.42 164.06,-324.1 160.15,-331.63 165.7,-332.42"/>
</g>
<!-- TCellSelection&#45;&gt;ModuleScoreCalculator -->
<g id="edge14" class="edge">
<title>TCellSelection&#45;&gt;ModuleScoreCalculator</title>
<path fill="none" stroke="black" d="M166.5,-287.7C166.5,-279.39 166.5,-269.28 166.5,-260.14"/>
<polygon fill="black" stroke="black" points="169.3,-260.1 166.5,-252.1 163.7,-260.1 169.3,-260.1"/>
</g>
</g>
</svg>
